<svg width="218" height="233" viewBox="0 0 218 233" fill="none" xmlns="http://www.w3.org/2000/svg">
<path d="M217.831 196.927H0V232.412H217.831V196.927Z" fill="black"/>
<path d="M26.0064 197.307V86.5183C26.0064 44.2584 62.2207 10 106.893 10H110.938C155.61 10 191.825 44.2584 191.825 86.5183V197.307" stroke="black" stroke-width="19.3"/>
<path d="M89.2877 80.5283V94.5717L77.3745 101.743L89.2877 109.102V123.128L62.8621 106.31V97.3463L89.2877 80.5283Z" fill="black"/>
<path d="M125.388 77.4225L105.273 130.344H92.4426L112.558 77.4225L125.388 77.4225Z" fill="black"/>
<path d="M128.543 80.5283L154.969 97.3463V106.31L128.543 123.128V109.085L140.456 101.914L128.543 94.5543V80.5283Z" fill="black"/>
<path d="M19.5778 101.57H50.1821" stroke="black" stroke-width="8" stroke-linecap="square"/>
<path d="M167.649 101.57H198.253" stroke="black" stroke-width="8" stroke-linecap="square"/>
</svg>
