<svg id="eG2WlJrXO6Y1" xmlns="http://www.w3.org/2000/svg" xmlns:xlink="http://www.w3.org/1999/xlink" viewBox="0 0 218 233" shape-rendering="geometricPrecision" text-rendering="geometricPrecision">
<style><![CDATA[
#eG2WlJrXO6Y4_tr {animation: eG2WlJrXO6Y4_tr__tr 2000ms linear infinite normal forwards}@keyframes eG2WlJrXO6Y4_tr__tr { 0% {transform: translate(108.915547px,103.883248px) rotate(0deg)} 20% {transform: translate(108.915547px,103.883248px) rotate(0deg);animation-timing-function: cubic-bezier(0.42,0,0.58,1)} 80% {transform: translate(108.915547px,103.883248px) rotate(360deg)} 100% {transform: translate(108.915547px,103.883248px) rotate(360deg)}}
]]></style>
<path d="M217.831,196.927h-217.831v35.485h217.831v-35.485Z"/><path d="M26.0064,197.307v-110.7887C26.0064,44.2584,62.2207,10,106.893,10h4.045c44.672,0,80.887,34.2584,80.887,76.5183v110.7887" fill="none" stroke="#000" stroke-width="19.3"/><g id="eG2WlJrXO6Y4_tr" transform="translate(108.915547,103.883248) rotate(0)"><g transform="translate(-108.915546,-103.883248)"><path d="M89.2877,80.5283v14.0434L77.3745,101.743l11.9132,7.359v14.026L62.8621,106.31v-8.9637l26.4256-16.818Z"/><path d="M125.388,77.4225L105.273,130.344h-12.8304L112.558,77.4225h12.83Z"/><path d="M128.543,80.5283l26.426,16.818v8.9637l-26.426,16.818v-14.043l11.913-7.171-11.913-7.3597v-14.026Z"/></g></g><path d="M19.5778,101.57h30.6043" fill="none" stroke="#000" stroke-width="8" stroke-linecap="square"/><path d="M167.649,101.57h30.604" fill="none" stroke="#000" stroke-width="8" stroke-linecap="square"/></svg>
