<svg width="950" height="262" viewBox="0 0 950 262" fill="none" xmlns="http://www.w3.org/2000/svg">
<path d="M217.831 212.927H0V248.412H217.831V212.927Z" fill="white"/>
<path d="M26.0064 213.307V102.518C26.0064 60.2584 62.2207 26 106.893 26H110.938C155.61 26 191.825 60.2584 191.825 102.518V213.307" stroke="white" stroke-width="19.3"/>
<path d="M89.2877 96.5283V110.572L77.3745 117.743L89.2877 125.102V139.128L62.8621 122.31V113.346L89.2877 96.5283Z" fill="white"/>
<path d="M125.388 93.4225L105.273 146.344H92.4426L112.558 93.4225L125.388 93.4225Z" fill="white"/>
<path d="M128.543 96.5283L154.969 113.346V122.31L128.543 139.128V125.085L140.456 117.914L128.543 110.554V96.5283Z" fill="white"/>
<path d="M19.5778 117.57H50.1821" stroke="white" stroke-width="8" stroke-linecap="square"/>
<path d="M167.649 117.57H198.253" stroke="white" stroke-width="8" stroke-linecap="square"/>
<path d="M259.856 160V107.968H277.232V123.136L274.64 118.816C276.176 114.912 278.672 112 282.128 110.08C285.584 108.096 289.776 107.104 294.704 107.104V123.52C293.872 123.392 293.136 123.328 292.496 123.328C291.92 123.264 291.28 123.232 290.576 123.232C286.864 123.232 283.856 124.256 281.552 126.304C279.248 128.288 278.096 131.552 278.096 136.096V160H259.856ZM329.026 160.864C322.882 160.864 317.506 159.712 312.898 157.408C308.354 155.04 304.802 151.84 302.242 147.808C299.746 143.712 298.498 139.072 298.498 133.888C298.498 128.704 299.714 124.096 302.146 120.064C304.642 115.968 308.066 112.8 312.418 110.56C316.77 108.256 321.666 107.104 327.106 107.104C332.226 107.104 336.898 108.16 341.122 110.272C345.346 112.32 348.706 115.36 351.202 119.392C353.698 123.424 354.946 128.32 354.946 134.08C354.946 134.72 354.914 135.456 354.85 136.288C354.786 137.12 354.722 137.888 354.658 138.592H313.474V128.992H344.962L338.05 131.68C338.114 129.312 337.666 127.264 336.706 125.536C335.81 123.808 334.53 122.464 332.866 121.504C331.266 120.544 329.378 120.064 327.202 120.064C325.026 120.064 323.106 120.544 321.442 121.504C319.842 122.464 318.594 123.84 317.698 125.632C316.802 127.36 316.354 129.408 316.354 131.776V134.56C316.354 137.12 316.866 139.328 317.89 141.184C318.978 143.04 320.514 144.48 322.498 145.504C324.482 146.464 326.85 146.944 329.602 146.944C332.162 146.944 334.338 146.592 336.13 145.888C337.986 145.12 339.81 143.968 341.602 142.432L351.202 152.416C348.706 155.168 345.634 157.28 341.986 158.752C338.338 160.16 334.018 160.864 329.026 160.864ZM396.092 160.864C391.676 160.864 387.9 159.904 384.764 157.984C381.628 156 379.228 153.056 377.564 149.152C375.964 145.184 375.164 140.128 375.164 133.984C375.164 127.776 375.932 122.72 377.468 118.816C379.004 114.848 381.308 111.904 384.38 109.984C387.516 108.064 391.42 107.104 396.092 107.104C400.828 107.104 405.116 108.224 408.956 110.464C412.86 112.64 415.932 115.744 418.172 119.776C420.476 123.744 421.628 128.48 421.628 133.984C421.628 139.488 420.476 144.256 418.172 148.288C415.932 152.32 412.86 155.424 408.956 157.6C405.116 159.776 400.828 160.864 396.092 160.864ZM363.356 178.624V107.968H380.732V116.8L380.636 133.984L381.596 151.264V178.624H363.356ZM392.252 146.368C394.3 146.368 396.124 145.888 397.724 144.928C399.388 143.968 400.7 142.56 401.66 140.704C402.684 138.848 403.196 136.608 403.196 133.984C403.196 131.36 402.684 129.12 401.66 127.264C400.7 125.408 399.388 124 397.724 123.04C396.124 122.08 394.3 121.6 392.252 121.6C390.204 121.6 388.348 122.08 386.684 123.04C385.084 124 383.772 125.408 382.748 127.264C381.788 129.12 381.308 131.36 381.308 133.984C381.308 136.608 381.788 138.848 382.748 140.704C383.772 142.56 385.084 143.968 386.684 144.928C388.348 145.888 390.204 146.368 392.252 146.368ZM456.218 160.864C450.522 160.864 445.466 159.712 441.05 157.408C436.634 155.104 433.146 151.936 430.586 147.904C428.09 143.808 426.842 139.136 426.842 133.888C426.842 128.64 428.09 124 430.586 119.968C433.146 115.936 436.634 112.8 441.05 110.56C445.466 108.256 450.522 107.104 456.218 107.104C461.914 107.104 466.97 108.256 471.386 110.56C475.866 112.8 479.354 115.936 481.85 119.968C484.346 124 485.594 128.64 485.594 133.888C485.594 139.136 484.346 143.808 481.85 147.904C479.354 151.936 475.866 155.104 471.386 157.408C466.97 159.712 461.914 160.864 456.218 160.864ZM456.218 146.368C458.33 146.368 460.186 145.888 461.786 144.928C463.45 143.968 464.762 142.56 465.722 140.704C466.682 138.784 467.162 136.512 467.162 133.888C467.162 131.264 466.682 129.056 465.722 127.264C464.762 125.408 463.45 124 461.786 123.04C460.186 122.08 458.33 121.6 456.218 121.6C454.17 121.6 452.314 122.08 450.65 123.04C449.05 124 447.738 125.408 446.714 127.264C445.754 129.056 445.274 131.264 445.274 133.888C445.274 136.512 445.754 138.784 446.714 140.704C447.738 142.56 449.05 143.968 450.65 144.928C452.314 145.888 454.17 146.368 456.218 146.368ZM512.956 160.864C508.54 160.864 504.22 160.352 499.996 159.328C495.836 158.304 492.476 157.024 489.916 155.488L495.388 143.008C497.82 144.48 500.668 145.664 503.932 146.56C507.196 147.392 510.396 147.808 513.531 147.808C516.604 147.808 518.716 147.488 519.868 146.848C521.084 146.208 521.692 145.344 521.692 144.256C521.692 143.232 521.116 142.496 519.964 142.048C518.876 141.536 517.404 141.152 515.548 140.896C513.756 140.64 511.772 140.352 509.596 140.032C507.42 139.712 505.212 139.296 502.972 138.784C500.796 138.208 498.78 137.376 496.924 136.288C495.132 135.136 493.692 133.6 492.604 131.68C491.516 129.76 490.972 127.328 490.972 124.384C490.972 121.056 491.932 118.112 493.852 115.552C495.836 112.928 498.716 110.88 502.492 109.408C506.268 107.872 510.876 107.104 516.316 107.104C519.964 107.104 523.644 107.488 527.356 108.256C531.132 108.96 534.3 110.048 536.86 111.52L531.388 123.904C528.828 122.432 526.268 121.44 523.708 120.928C521.148 120.352 518.716 120.064 516.411 120.064C513.34 120.064 511.164 120.416 509.884 121.12C508.668 121.824 508.06 122.688 508.06 123.712C508.06 124.736 508.604 125.536 509.692 126.112C510.78 126.624 512.22 127.04 514.012 127.36C515.868 127.616 517.884 127.904 520.06 128.224C522.236 128.48 524.412 128.896 526.588 129.472C528.828 130.048 530.844 130.912 532.636 132.064C534.492 133.152 535.964 134.656 537.052 136.576C538.14 138.432 538.684 140.832 538.684 143.776C538.684 146.976 537.692 149.856 535.708 152.416C533.788 154.976 530.908 157.024 527.068 158.56C523.292 160.096 518.588 160.864 512.956 160.864ZM546.544 160V107.968H564.784V160H546.544ZM555.664 102.208C552.336 102.208 549.648 101.28 547.6 99.424C545.552 97.568 544.528 95.264 544.528 92.512C544.528 89.76 545.552 87.456 547.6 85.6C549.648 83.744 552.336 82.816 555.664 82.816C558.992 82.816 561.68 83.712 563.728 85.504C565.776 87.232 566.8 89.472 566.8 92.224C566.8 95.104 565.776 97.504 563.728 99.424C561.744 101.28 559.056 102.208 555.664 102.208ZM599.869 160.864C593.213 160.864 588.029 159.232 584.317 155.968C580.605 152.64 578.749 147.648 578.749 140.992V96.352H596.989V140.8C596.989 142.656 597.501 144.128 598.525 145.216C599.549 146.24 600.861 146.752 602.461 146.752C604.637 146.752 606.493 146.208 608.029 145.12L612.541 157.888C611.005 158.912 609.117 159.648 606.877 160.096C604.637 160.608 602.301 160.864 599.869 160.864ZM571.165 123.52V109.888H608.893V123.52H571.165ZM644.187 160.864C638.491 160.864 633.435 159.712 629.019 157.408C624.603 155.104 621.115 151.936 618.555 147.904C616.059 143.808 614.811 139.136 614.811 133.888C614.811 128.64 616.059 124 618.555 119.968C621.115 115.936 624.603 112.8 629.019 110.56C633.435 108.256 638.491 107.104 644.187 107.104C649.883 107.104 654.939 108.256 659.355 110.56C663.835 112.8 667.323 115.936 669.819 119.968C672.315 124 673.563 128.64 673.563 133.888C673.563 139.136 672.315 143.808 669.819 147.904C667.323 151.936 663.835 155.104 659.355 157.408C654.939 159.712 649.883 160.864 644.187 160.864ZM644.187 146.368C646.299 146.368 648.155 145.888 649.755 144.928C651.419 143.968 652.731 142.56 653.691 140.704C654.651 138.784 655.131 136.512 655.131 133.888C655.131 131.264 654.651 129.056 653.691 127.264C652.731 125.408 651.419 124 649.755 123.04C648.155 122.08 646.299 121.6 644.187 121.6C642.139 121.6 640.283 122.08 638.619 123.04C637.019 124 635.707 125.408 634.683 127.264C633.723 129.056 633.243 131.264 633.243 133.888C633.243 136.512 633.723 138.784 634.683 140.704C635.707 142.56 637.019 143.968 638.619 144.928C640.283 145.888 642.139 146.368 644.187 146.368ZM682.012 160V107.968H699.388V123.136L696.796 118.816C698.332 114.912 700.828 112 704.284 110.08C707.74 108.096 711.932 107.104 716.86 107.104V123.52C716.028 123.392 715.292 123.328 714.652 123.328C714.076 123.264 713.436 123.232 712.732 123.232C709.02 123.232 706.012 124.256 703.708 126.304C701.404 128.288 700.252 131.552 700.252 136.096V160H682.012ZM734.909 179.488C732.157 179.488 729.373 179.04 726.557 178.144C723.805 177.312 721.565 176.192 719.837 174.784L726.173 162.016C727.261 162.976 728.509 163.712 729.917 164.224C731.389 164.8 732.829 165.088 734.237 165.088C736.221 165.088 737.789 164.64 738.941 163.744C740.093 162.848 741.085 161.44 741.917 159.52L744.317 153.472L745.757 151.648L763.421 107.968H780.797L758.333 162.112C756.541 166.592 754.461 170.08 752.093 172.576C749.789 175.136 747.197 176.928 744.317 177.952C741.501 178.976 738.365 179.488 734.909 179.488ZM742.013 162.208L719.069 107.968H737.789L754.685 150.016L742.013 162.208ZM790.192 160.864C787.12 160.864 784.528 159.84 782.416 157.792C780.304 155.744 779.248 153.152 779.248 150.016C779.248 146.752 780.304 144.16 782.416 142.24C784.528 140.256 787.12 139.264 790.192 139.264C793.264 139.264 795.856 140.256 797.968 142.24C800.08 144.16 801.136 146.752 801.136 150.016C801.136 153.152 800.08 155.744 797.968 157.792C795.856 159.84 793.264 160.864 790.192 160.864ZM809.7 160V107.968H827.076V123.136L824.484 118.816C826.02 114.912 828.516 112 831.972 110.08C835.428 108.096 839.62 107.104 844.548 107.104V123.52C843.716 123.392 842.98 123.328 842.34 123.328C841.764 123.264 841.124 123.232 840.42 123.232C836.708 123.232 833.7 124.256 831.396 126.304C829.092 128.288 827.94 131.552 827.94 136.096V160H809.7ZM852.075 160V107.968H870.315V160H852.075ZM861.195 102.208C857.867 102.208 855.179 101.28 853.131 99.424C851.083 97.568 850.059 95.264 850.059 92.512C850.059 89.76 851.083 87.456 853.131 85.6C855.179 83.744 857.867 82.816 861.195 82.816C864.523 82.816 867.211 83.712 869.259 85.504C871.307 87.232 872.331 89.472 872.331 92.224C872.331 95.104 871.307 97.504 869.259 99.424C867.275 101.28 864.587 102.208 861.195 102.208ZM914.905 160.864C910.489 160.864 906.713 159.904 903.577 157.984C900.441 156 898.041 153.056 896.377 149.152C894.777 145.184 893.977 140.128 893.977 133.984C893.977 127.776 894.745 122.72 896.281 118.816C897.817 114.848 900.121 111.904 903.193 109.984C906.329 108.064 910.233 107.104 914.905 107.104C919.641 107.104 923.929 108.224 927.769 110.464C931.673 112.64 934.745 115.744 936.985 119.776C939.289 123.744 940.441 128.48 940.441 133.984C940.441 139.488 939.289 144.256 936.985 148.288C934.745 152.32 931.673 155.424 927.769 157.6C923.929 159.776 919.641 160.864 914.905 160.864ZM882.169 178.624V107.968H899.545V116.8L899.449 133.984L900.409 151.264V178.624H882.169ZM911.065 146.368C913.113 146.368 914.937 145.888 916.537 144.928C918.201 143.968 919.513 142.56 920.473 140.704C921.497 138.848 922.009 136.608 922.009 133.984C922.009 131.36 921.497 129.12 920.473 127.264C919.513 125.408 918.201 124 916.537 123.04C914.937 122.08 913.113 121.6 911.065 121.6C909.017 121.6 907.161 122.08 905.497 123.04C903.897 124 902.585 125.408 901.561 127.264C900.601 129.12 900.121 131.36 900.121 133.984C900.121 136.608 900.601 138.848 901.561 140.704C902.585 142.56 903.897 143.968 905.497 144.928C907.161 145.888 909.017 146.368 911.065 146.368Z" fill="white"/>
</svg>
